<?xml version="1.0" encoding="UTF-8"?>
<svg id="Layer_1" data-name="Layer 1" xmlns="http://www.w3.org/2000/svg" xmlns:xlink="http://www.w3.org/1999/xlink" viewBox="0 0 1921 1080">
  <defs>
    <style>
      .cls-1 {
        fill: none;
        stroke: url(#linear-gradient-9);
      }

      .cls-1, .cls-2, .cls-3, .cls-4, .cls-5, .cls-6, .cls-7, .cls-8, .cls-9, .cls-10, .cls-11, .cls-12, .cls-13, .cls-14, .cls-15 {
        stroke-miterlimit: 10;
      }

      .cls-16, .cls-3, .cls-9, .cls-17 {
        fill: #fff;
      }

      .cls-2 {
        fill: url(#linear-gradient-10);
      }

      .cls-2, .cls-3, .cls-4, .cls-5, .cls-6, .cls-7, .cls-8, .cls-10, .cls-11, .cls-12, .cls-13, .cls-14, .cls-15 {
        stroke: #fff;
      }

      .cls-2, .cls-11, .cls-12, .cls-13 {
        opacity: .8;
      }

      .cls-3 {
        stroke-width: .5px;
      }

      .cls-4 {
        fill: url(#linear-gradient-5);
      }

      .cls-5 {
        fill: url(#linear-gradient-6);
      }

      .cls-6 {
        fill: url(#linear-gradient-3);
      }

      .cls-7 {
        fill: url(#linear-gradient-4);
      }

      .cls-8 {
        fill: #9cc100;
      }

      .cls-9 {
        stroke: #ace000;
      }

      .cls-10, .cls-14 {
        fill: #ace000;
      }

      .cls-11 {
        fill: url(#linear-gradient-8);
      }

      .cls-12 {
        fill: url(#linear-gradient-2);
      }

      .cls-13 {
        fill: url(#linear-gradient-7);
      }

      .cls-14 {
        opacity: .9;
      }

      .cls-15 {
        fill: url(#linear-gradient);
      }

      .cls-17 {
        opacity: .69;
      }
    </style>
    <linearGradient id="linear-gradient" x1=".5" y1="540" x2="1920.5" y2="540" gradientUnits="userSpaceOnUse">
      <stop offset="0" stop-color="#00b49b" stop-opacity="0"/>
      <stop offset="0" stop-color="#00b49b"/>
    </linearGradient>
    <linearGradient id="linear-gradient-2" x1="854.12" y1="397.67" x2="1013.36" y2="397.67" gradientUnits="userSpaceOnUse">
      <stop offset="1" stop-color="#c1e900"/>
      <stop offset="1" stop-color="#fff"/>
      <stop offset="1" stop-color="#fff8ea" stop-opacity="0"/>
    </linearGradient>
    <linearGradient id="linear-gradient-3" x1="944.26" y1="464.36" x2="1139.35" y2="464.36" gradientUnits="userSpaceOnUse">
      <stop offset=".19" stop-color="#c1e900"/>
      <stop offset=".76" stop-color="#8ac640" stop-opacity=".85"/>
      <stop offset="1" stop-color="#fff8ea" stop-opacity="0"/>
    </linearGradient>
    <linearGradient id="linear-gradient-4" x1="786.86" y1="456.66" x2="886.84" y2="456.66" gradientUnits="userSpaceOnUse">
      <stop offset=".19" stop-color="#d7df23"/>
      <stop offset=".76" stop-color="#8ac640" stop-opacity=".85"/>
      <stop offset="1" stop-color="#fff8ea" stop-opacity="0"/>
    </linearGradient>
    <linearGradient id="linear-gradient-5" x1="954.83" y1="517.87" x2="1139.46" y2="517.87" gradientUnits="userSpaceOnUse">
      <stop offset=".14" stop-color="#8db900"/>
      <stop offset="1" stop-color="#fff8ea" stop-opacity="0"/>
    </linearGradient>
    <linearGradient id="linear-gradient-6" x1="784.42" y1="509.27" x2="888.43" y2="509.27" xlink:href="#linear-gradient-5"/>
    <linearGradient id="linear-gradient-7" x1="965.07" y1="598.33" x2="1131.51" y2="598.33" xlink:href="#linear-gradient-2"/>
    <linearGradient id="linear-gradient-8" x1="864.73" y1="639.03" x2="959.93" y2="639.03" xlink:href="#linear-gradient-2"/>
    <linearGradient id="linear-gradient-9" x1="841.55" y1="717.12" x2="980.04" y2="717.12" xlink:href="#linear-gradient-2"/>
    <linearGradient id="linear-gradient-10" x1="889.25" y1="775.32" x2="1010.11" y2="775.32" xlink:href="#linear-gradient-2"/>
  </defs>
  <rect class="cls-15" x=".5" y=".5" width="1920" height="1079"/>
  <path class="cls-14" d="m1022.52,314.05c5.79-2.83,12.73.15,32.15,12.86,30.97,20.26,46.41,30.58,44.23,39.79-1.6,6.78-11.3,7.05-12.38,15.08-.2,1.49-.4,5.45,9.39,17.39,5.22,6.38,8.87,9.33,21.73,21.73,0,0,7.79,7.21,16.85,15.96,24.22,23.4,23.58,25.81,23.17,26.49-1.49,2.45-10.43-.21-18.29-2.55-8.37-2.49-14.37-5.42-15.96-6.21-18.94-9.35-28.4-14.03-36.25-21.5-3.99-3.8-13.68-13.84-19.84-28.71-3.77-9.1-7.85-18.08-11.42-27.27-.94-2.41-2.17-5.63-4.99-9.09-2.7-3.31-6.31-5.85-14.85-9.98-12.22-5.9-18.77-4.12-22.72-10.09-3.39-5.11-2.01-11.61-1-16.41.6-2.84,2.96-13.97,10.2-17.51Z"/>
  <path class="cls-14" d="m848.71,315.38c-5.23,1.4-8.17,5.16-9.98,7.54-3.23,4.25-4.21,8.22-5.54,13.52-2.78,11.11-5.59,22.2-7.76,29.93-2.43,8.66-3.91,12.57-5.21,15.63-1.11,2.63-3.11,7.3-6.54,12.86-2.84,4.61-6.11,8.61-12.53,16.41-6.05,7.35-8.43,9.84-8.09,10.2.46.48,5.31-3.58,18.76-14.21,7.26-5.74,10.89-8.61,11.39-8.95,8.55-5.84,13-6.43,33.25-15.19,14.21-6.14,15.74-7.46,17.07-9.53,5.23-8.12,2.64-20.22,1.11-27.16-.71-3.21-1.51-5.54-3.1-10.2-3.67-10.71-5.59-16.12-9.75-18.84-5.85-3.83-12.58-2.13-13.08-2Z"/>
  <path class="cls-12" d="m899.92,351.52c3.6-6,13.9-5.92,20.93-5.86,1.61.01,28.07.42,30.39,10.18,1.22,5.13-5.1,9.14-3.99,19.18.25,2.24.43,3.72,1.55,5.1,2.58,3.18,7.81,3.07,21.17.89,7.41-1.21,21.66-3.76,35.91-3.99,2.72-.04,6.94-.03,7.43,1.55.48,1.57-2.95,3.95-6.1,5.99-11.33,7.36-19.06,10.49-28.27,15.74-11.51,6.57-13.86,9.93-14.74,11.31-3.4,5.32-4.62,12.9-4.99,14.96-1.1,6.11-.49,8.58-2.66,12.08-.85,1.38-2.94,4.22-8.31,6.65-15.72,7.1-43.75,3.49-45,3.33-20.1-2.72-32.2-4.53-41.9-14.41-2.5-2.54-8.17-8.36-7.09-14.63.82-4.75,4.96-6.6,17.18-14.63,21.21-13.95,23.49-18.07,24.5-20.29,3.14-6.9,3.36-15.85,3.44-18.73.21-8.44-1.49-11,.55-14.41Z"/>
  <path class="cls-6" d="m947.36,459.04c4.17-.76,10.26-1.87,14.63-2.66,16.05-2.91,20.35-3.67,22.17-3.99,9.59-1.69,14.46-2.54,20.84-3.55,8.43-1.33,12.41-1.8,28.82-3.99,6.14-.82,15.13-2.03,26.16-3.55,14.33,4.08,26.08,7.6,34.58,10.2,9.13,2.79,12.96,4.03,14.19,4.43,12.97,4.24,23.42,8.22,30.59,11.08-6.63-.26-16.62-.69-28.82-1.33-12.48-.66-17.93-1.04-23.5-1.33-10.81-.56-26.46-.97-46.33-.11-16.23,1.14-29.21,3.67-38.35,5.87-2.82.68-7.28,1.82-33.81,9.87-10.05,3.05-18.4,5.61-24.28,7.43.36-6.08.94-12.45,1.77-19.07.4-3.18.85-6.29,1.33-9.31Z"/>
  <path class="cls-7" d="m885.9,476.39c-.21,2.69-.41,5.37-.61,8.04-19.73-9.61-39.53-19.4-59.41-29.37-5.73-2.87-11.45-5.75-17.14-8.64-3.37,1.92-6.82,3.84-10.35,5.75-3.89,2.11-7.74,4.14-11.53,6.1,2.82-5.51,6.05-11.31,9.75-17.29,2.66-4.3,5.33-8.32,7.98-12.08,10.89,4.35,21.95,8.91,33.16,13.7,16.97,7.26,33.34,14.65,49.09,22.1-.32,3.88-.64,7.78-.94,11.69Z"/>
  <path class="cls-4" d="m1032.38,499.17c40.25-6.59,74.81-11.92,101.76-15.96-33.07,20.83-59.04,25.32-77.15,25.27-6.35-.01-10.81-.58-19.95-.33-26.9.74-48.49,7.32-62.85,12.97,4.32,4.49,11.77,10.98,22.61,14.96,13.41,4.92,25.05,3.45,31.26,2.66,22.91-2.91,63.68-20.16,111.4-50.88-8.13,7.93-21.72,20.09-40.57,31.92-23.84,14.97-69.23,43.4-112.07,28.6-14.75-5.1-33.31-16.74-31.92-26.34,1.42-9.82,23.24-13.99,77.48-22.88Z"/>
  <path class="cls-8" d="m931.85,501.61c.92-.03,1.74,18.95,5.06,48.36,2,17.65,3.03,26.62,4.91,33.45,6.06,22,16.8,37.52,14.85,38.8-1.9,1.24-10.2-14.7-20.54-13.71-9.28.89-14.66,14.73-16.48,13.71-1.38-.77,1.65-7.84,4.21-18.62,2.22-9.37,2.91-16.59,3.51-22.85.94-9.82.58-14.34,1.37-29.47.36-6.83.61-10.78.61-10.78.25-3.96.35-5.04.72-12.28,1.07-21.23,1.22-26.59,1.77-26.6Z"/>
  <path class="cls-8" d="m903.91,504.71c.49.13.37,2.42-.89,11.08-3.59,24.75-6.7,34.27-9.75,54.09-1.75,11.32-1.34,12.16-3.1,21.28-2.91,15.05-7.44,30.48-9.75,30.15-2.23-.31-.28-14.96-3.99-15.96-4.53-1.22-12.99,19.15-14.19,18.62-1.27-.56,8.01-23.4,18.18-53.21,2.22-6.51,1.56-4.78,6.65-19.95,14.17-42.23,16.16-46.29,16.85-46.11Z"/>
  <path class="cls-5" d="m878.64,516.24c3.24,2.4,5.45,4.9,6.76,6.54-2.13.15-5.42.44-9.42,1-8.03,1.12-12.56,2.11-15.96,2.66,0,0-9.26,1.49-23.17-.89-15.1-2.59-35.19-15.22-52.43-36.47,1.27,2.59,3.18,6.21,5.87,10.31,4.73,7.2,17.9,26.63,42.79,35.47,6.1,2.17,31.45,11.17,48.33-1.44,3.22-2.4,6.6-4.93,6.98-8.31.94-8.25-15.88-22.14-99.43-46.56,23.38,21.2,40.82,26.29,52.65,26.82,0,0,23.88,1.12,37.02,10.86Z"/>
  <path class="cls-13" d="m975.3,563.24c-6.71,3.03-8.78,11.27-9.31,13.75-.51,6.71-1.06,16.69-.89,28.82.43,29.97,4.82,43.05,6.1,46.67,3.49,9.86,8.61,24.34,19.18,26.49,2.55.52,6.52.55,15.74-4.88,26.13-15.37,27.87-35.42,50.23-42.31,6.26-1.93,6.12-.36,11.63-2.47,10.49-4.04,16.09-11.71,30.26-36.03,3.56-6.1,14.55-25.11,26.94-53.54,5.02-11.51,8.06-19.5,5.32-21.73-1.99-1.61-6.28.36-15.96,6.21-20.5,12.37-37.53,25.33-40.35,27.49-11.51,8.81-16.36,12.82-25.27,16.85-4.77,2.15-10.77,4.8-19.07,5.32-6.81.43-11.97-.77-18.18-2.22-9.14-2.13-9.96-4.45-19.95-7.09-8.13-2.15-12.28-3.19-16.41-1.33Z"/>
  <path class="cls-11" d="m864.78,632.85c.79-4.61,9.33-8.68,15.96-6.98,6.25,1.6,6.79,7.28,15.63,10.31,1.3.45,4.1,1.38,7.65,1.33,6.95-.1,9.57-3.88,16.29-6.98,10.63-4.91,20.92-3.23,30.59-1.66,4.78.78,8.56,1.44,8.98,3.33.79,3.56-11.6,9.34-17.96,12.3-2.21,1.03-5.75,2.68-9.64,3.99-15.23,5.12-44.8,7.98-62.19-6.98-5.65-4.86-5.48-7.71-5.32-8.65Z"/>
  <path class="cls-14" d="m1147.11,514.8c-1.03-.24-4.82,1.65-12.97,27.93-3.18,10.25-8.13,24.5-15.63,40.9-10.6,23.18-15.9,34.77-25.61,44.89-8.19,8.54-28.6,26.55-42.23,34.25-1.98,1.12-6.45,3.61-10.31,8.65-5.34,6.96-6.15,14.53-6.9,22.28-1.2,12.36-2.31,23.81,3.53,27.13,5.62,3.19,15.47-2.42,20.33-5.18,4.08-2.32,6.77-4.64,7.25-5.05,13.66-11.74,13.34-8.11,48.28-37.85,44.91-38.23,45.52-44.3,44.23-46.89-1.05-2.11-3.17-1.52-6.32-3.66-10.57-7.15-7.78-27.93-5.65-49.55,2.08-21.17,5.61-57.03,2-57.86Z"/>
  <path class="cls-14" d="m791.29,533.75c-5.8.17-11.15,16.55-11.97,30.59-.56,9.57,1.03,17.04,18.18,57.42,11.65,27.43,17.47,41.15,24.05,52.98,2.7,4.85,7.2,12.75,12.64,23.94,1.87,3.86,2.89,6.07,4.21,8.88,9.91,21.16,14.97,28.44,23.17,45.88,2.42,5.13,5.82,12.67,9.53,22.06,7.1,16.21,9.69,24.89,7.76,26.05-2.3,1.38-11.02-7.93-26.16-27.93-4.91-6.89-11.48-17.92-14.85-32.7-1.21-5.29-1.45-12.35-2.41-26.45-1.48-21.72-2.16-32.75.86-40.61,3.23-8.41,6.84-10.46,9.31-20.84,0,0,2.17-9.12,1.33-18.4-1.74-19.28-17.61-26.98-31.7-47.44-19.5-28.31-16.71-53.64-23.94-53.43Z"/>
  <path class="cls-1" d="m842.17,695.37c.59-4.77,3.06-7.97,4.66-9.98,1.64-2.07,8.57-10.81,19.62-12.3,12.16-1.65,16.51,7.21,32.26,6.65,1.73-.06,4.96-.15,10.31-.33,1.28-.04,7.1-.22,13.3.33,1.24.11,9.01.86,16.29,3.33,13.41,4.54,12.22,10.52,35.25,29.6,2.45,2.03,5.21,4.45,5.65,7.98.19,1.52-.11,4.17-11.31,13.97-7.55,6.61-11.54,9.66-16.96,12.97-5.75,3.5-13.4,8.17-24.28,10.97-7.03,1.81-19.12,4.93-33.59.67-5.03-1.48-17-5-24.94-15.63-8.61-11.53-3.26-19.09-12.85-27.61-4.72-4.2-10.6-6.44-12.76-13.29-1.1-3.49-.75-6.64-.67-7.32Z"/>
  <path class="cls-8" d="m857.28,693.59c5.71-1.66,8.65-2.48,12.5-2.24,4.24.27,5.7,1.54,13.24,4.67,9.97,4.14,14.96,6.21,20.97,6.42,5.02.18,4.54-1.02,13.95-1.77,4.48-.36,9.85-.79,16.63,0,8.65,1.02,15.07,3.44,19.95,5.32,1.45.56,5.36,2.1,10.31,4.66,8.85,4.58,15.05,7.78,14.63,9.98-.58,3.07-13.42.99-36.8,3.55-15.48,1.69-18.1,3.5-29.26,3.33-2.55-.04-12.24-.29-25.61-3.66-21.77-5.49-47.02-17.67-45.62-23.96.46-2.05,5.34-3.47,15.11-6.3Z"/>
  <path class="cls-17" d="m763.58,625.75c.06-4.9,27.86-16.01,45.45-3.55,15.89,11.26,14.41,35.38,14.19,38.35-1.62,21.44-16.1,25.23-13.3,41.9,2.09,12.46,11.3,17.04,9.31,29.93-.86,5.6-3.53,10.74-5.32,14.19-1.88,3.62-4.94,7.82-10.97,16.07-6.83,9.33-9.43,12.34-9.2,17.18.16,3.34,1.53,4.88.44,6.43-2.09,2.97-10.4,1.99-15.96-1.77-5.58-3.78-9-10.79-9.09-17.51-.13-9.56,6.55-12.35,4.66-19.95-1.51-6.07-6.8-8.42-5.54-11.31,1.34-3.08,7.6-.96,10.86-5.32,1.82-2.44,2.21-6.24.89-8.87-1.48-2.93-4.18-2.62-5.76-5.32-1.89-3.24-.24-7.5.67-9.75,3.95-9.82,11.52-10.11,17.29-18.84,3.74-5.66,4.3-11.21,4.88-16.85.48-4.72,2.06-20.25-6.87-30.59-10.61-12.29-26.65-10.62-26.6-14.41Z"/>
  <path class="cls-2" d="m889.5,779.17c1.6-3.72,10-1.94,22.83-2.44,6.37-.25,28.36-1.11,47.44-11.53,5.69-3.11,5.63-4.06,32.15-21.06,5.47-3.5,12.22-7.74,15.74-5.32,2.25,1.54,2.35,5.22,2.44,10.42.14,8.55-1.77,14.99-2,15.74-3.17,10.38-7.24,23.74-19.07,34.14-21.42,18.85-50.92,12.7-56.53,11.53-15.72-3.28-25.61-11-30.15-14.63-3.23-2.59-14.96-11.97-12.86-16.85Z"/>
  <path class="cls-9" d="m891.5,701.24c-4.82-2.16-9.88,1.03-30.15,14.74,0,0-12.06,7.97-24.02,16.52-2.21,1.58-5.04,3.6-8.57,6.31-.88.68-1.56,1.2-3.87,2.98-1.52,1.17-3.41,2.62-5.6,4.28-4.67,3.55-7.38,5.6-7.38,5.6-6.11,4.87-8.75,5.51-11.53,9.31-2.79,3.82-2.3,5.32-5.21,7.87-3.95,3.45-6.99,2.57-9.75,6.43-.51.71-2.55,3.57-1.66,6.1.6,1.71,1.98,1.63,2.55,3.33.9,2.68-1.98,4.49-1.11,6.65.5,1.25,1.6.99,5.43,2.99,3.56,1.86,3.81,2.72,6.32,3.44,1.57.45,3.76,1.08,5.21,0,1.43-1.07.67-2.71,1.77-4.66,1.39-2.45,3.92-2.22,8.31-4.1.47-.2.91-.4,1.39-.65,4.38-2.27,7.39-5.06,8.26-5.89,30.68-29.62,44.01-40.57,44.01-40.57,7.74-6.36,14.68-13.66,22.39-20.06,4.81-3.99,9.33-7.55,9.09-12.3-.17-3.35-2.68-6.88-5.87-8.31Z"/>
  <path class="cls-10" d="m801.38,763.43c.69.94,5.62-2.57,11.42-.22.1.04.17.07.27.11,4.11,1.85,6.45,7.98,5.94,12.86-.16,1.48-.59,4.08.76,5.44,0,0,.07.06.13.1,2.71,1.9,20.23-15.41,20.23-15.41s13.76-13.59,27.27-25.05c16.07-13.63,28.81-22.32,29.91-30.35.16-1.19.59-4.34-1.26-6.87-1.89-2.59-5.13-3.13-5.94-3.26-4.52-.74-8.24,1.52-19.03,8.68-5.88,3.9-8.82,5.85-9.73,6.53-15.2,11.29-30.74,20.56-52.76,38.8,0,0-8.42,6.98-7.21,8.65Z"/>
  <path class="cls-3" d="m862.62,718.2c.46.19,8.52,3.57,9.31,10.75.22,2-.18,3.77-.69,5.12,0,0,0,0,0,0,0,0,0,0,0,0,0,0-.14.36-.14.37-2.9,7.31-23.1,24.28-23.1,24.28-9.04,7.66-13.41,13.36-13.71,13.08-.37-.34,5.64-9.82,15.85-18.58,9.55-8.19,15.64-9.55,17.56-16.81,1.61-6.07-.6-11.71-.6-11.71-1.28-3.21-3.24-5.34-4.49-6.51Z"/>
  <path class="cls-10" d="m800.69,770.02c1.97.94,4.03,2.32,4.24,4.24.12,1.06-.89,1.87-.5,2.99.23.65.74,1,1.72,1.59,3.78,2.32,4.14,2.13,4.52,2.81,1.06,1.92-.93,4.91-2.08,6.15-.39.43-1.08,1.18-1.5,1-.86-.37.88-4.09-.75-5.74-.67-.68-1.15-.24-2.83-1.16-.92-.51-2.09-1.14-2.66-2.33-.77-1.6.31-2.44-.42-4.41-.35-.95-.9-1.57-2-2.83-1.43-1.63-2.31-2.08-2.16-2.44.31-.74,4.41.11,4.41.11Z"/>
  <path class="cls-10" d="m802.85,788.48c.37.39.21,1.04.17,1.25-.19.81-.76,1.15-1.27,1.72-1.21,1.33-.65,2.26-1.47,3.02-1.61,1.5-6.32.21-6.9-1.94-.08-.3-.03-.68.08-1.44.23-1.62.38-2.69,1.25-3.52.92-.89,2.12-.98,2.36-1,.4-.02.62.03.69.06.75.22,1.51,1.01,1.44,1.69-.1.96-1.79.9-2.8,2.6-.17.3-.55.94-.3,1.33.27.44,1.33.47,2,.03.38-.25.33-.45.97-1.44.45-.7.88-1.23,1.3-1.66.68-.71.96-.83,1.14-.89.11-.03.93-.27,1.36.19Z"/>
  <path class="cls-10" d="m802.43,784.24c-.15.69-2.67-.1-5.74,1.08-2.54.97-3.03,2.37-4.41,2.08-1.85-.39-2.65-3.25-2.77-3.69-.33-1.17-.18-2.32.11-4.63.45-3.51,1.08-4.22,1.33-4.46.88-.87,2.37-1.42,2.99-.91.56.46.31,1.67.19,2.22-.37,1.78-1.4,2.3-1.11,3.08.25.68,1.35,1.11,2.02.86.52-.19.49-.72,1.05-.86.77-.2,1.5.35,1.66.47.83.62,1.09,1.26,1.55,1.97,1.34,2.04,3.23,2.22,3.1,2.8Z"/>
  <path class="cls-16" d="m895.21,703.09c.64.7,1.92,2.31,2.16,4.62.21,2.04-.5,3.61-.84,4.34-1.51,3.18-7.3,7.62-15.74,11.49-.52.24,11.03-3.91,13.93-13.32.91-2.94.72-5.58.5-7.12Z"/>
</svg>